<svg width="1920" height="594" viewBox="0 0 1920 594" fill="none" xmlns="http://www.w3.org/2000/svg">
<mask id="mask0_616_662" style="mask-type:alpha" maskUnits="userSpaceOnUse" x="0" y="0" width="1920" height="594">
<rect width="1920" height="594" fill="#FDF3EF"/>
</mask>
<g mask="url(#mask0_616_662)">
<path d="M773.756 1229.65H229.817C141.977 1141.59 91.8397 1091.33 4 1003.28L4 93.7279C79.9695 17.573 153.734 -56.3719 231.174 -134L769.121 -134C844.13 -58.8651 917.216 14.4566 994.43 91.8013C994.656 95.881 995.617 106.137 995.617 116.393C995.673 403.334 995.503 690.274 996.012 977.271C996.069 1005.77 996.012 964.805 996.012 1005.77C950.001 1055.81 791.222 1212.93 773.756 1229.65ZM751.485 -99.719C675.855 -99.719 594.911 -99.889 513.968 -99.4923C505.828 -99.4357 497.123 -97.1125 489.606 -93.7694C441.729 -72.2942 399.448 -42.8295 365.759 -2.20228C322.687 49.7009 305.108 109.48 311.835 176.796C317.261 231.249 336.14 281.168 361.237 329.049C404.592 411.606 464.056 482.151 526.177 550.713C572.471 601.823 614.639 656.05 649.967 715.432C657.541 728.125 664.889 740.874 674.498 757.249C769.178 535.868 862.387 317.943 954.24 103.191C886.693 35.6485 821.576 -29.5704 751.485 -99.719ZM247.735 -98.9257C177.475 -28.4938 111.736 37.405 44.9806 104.324C194.659 454.33 345.693 807.339 499.328 1166.58C552.97 1041.3 604.238 921.458 655.167 802.466C624.304 733.394 583.211 673.842 536.634 617.972C494.41 567.316 449.812 518.586 408.831 466.909C355.868 400.104 312.23 327.519 288.433 244.621C250.731 113.05 289.451 -0.899041 398.996 -82.7768C404.649 -87.0265 409.962 -91.7862 418.497 -98.9257L247.735 -98.9257ZM471.687 1193.04C327.831 856.749 181.432 518.982 39.6107 187.335C39.6107 193.908 39.6107 986.847 39.6107 986.847C109.984 1057.62 176.966 1124.93 244.683 1193.04H471.687ZM958.48 186.145C958.084 186.088 958.197 186.088 957.801 186.032C869.736 391.888 781.67 597.8 694.282 802.183C698.917 816.009 703.044 827.511 706.661 839.241C718.984 879.188 726.106 919.872 723.449 961.859C717.684 1052.92 673.311 1122.1 602.203 1176.04C595.985 1180.75 590.107 1185.96 580.498 1193.89H753.407C822.707 1124.31 889.745 1057.05 958.536 987.98L958.536 186.145H958.48ZM535.108 1174.4C659.802 1108.73 719.662 985.147 671.333 856.013C626.17 961.576 581.911 1065.04 535.108 1174.4Z" fill="url(#paint0_linear_616_662)"/>
</g>
<defs>
<linearGradient id="paint0_linear_616_662" x1="1087" y1="718" x2="-109" y2="721" gradientUnits="userSpaceOnUse">
<stop offset="0.00896657" stop-color="#F9F1EE" stop-opacity="0"/>
<stop offset="0.416667" stop-color="#D3B6AB"/>
<stop offset="1" stop-color="#F0E4DF" stop-opacity="0.222222"/>
</linearGradient>
</defs>
</svg>
