<svg width="414" height="861" viewBox="0 0 414 861" fill="none" xmlns="http://www.w3.org/2000/svg">
<mask id="mask0_646_88" style="mask-type:alpha" maskUnits="userSpaceOnUse" x="0" y="0" width="414" height="730">
<rect width="414" height="730" fill="#FDF3EF"/>
</mask>
<g mask="url(#mask0_646_88)">
<path d="M360.196 840H54.7897C5.47024 790.537 -22.6806 762.305 -72 712.843L-72 201.921C-29.3454 159.143 12.0715 117.606 55.5514 74L357.593 74C399.708 116.205 440.744 157.392 484.097 200.839C484.224 203.131 484.764 208.892 484.764 214.653C484.795 375.836 484.7 537.018 484.986 698.233C485.018 714.243 484.986 691.231 484.986 714.243C459.152 742.348 370.002 830.61 360.196 840ZM347.691 93.2566C305.227 93.2566 259.78 93.1611 214.332 93.3839C209.762 93.4158 204.874 94.7208 200.653 96.5987C173.772 108.662 150.033 125.213 131.117 148.035C106.934 177.19 97.0635 210.77 100.84 248.583C103.887 279.171 114.487 307.212 128.578 334.108C152.921 380.483 186.308 420.11 221.187 458.623C247.18 487.333 270.856 517.794 290.691 551.151C294.944 558.28 299.07 565.442 304.465 574.64C357.625 450.284 409.959 327.869 461.532 207.237C423.606 169.296 387.045 132.661 347.691 93.2566ZM64.8503 93.7022C25.4011 133.266 -11.5091 170.283 -48.9906 207.873C35.0492 404.482 119.851 602.777 206.112 804.574C236.231 734.2 265.016 666.881 293.611 600.04C276.283 561.24 253.21 527.788 227.059 496.404C203.351 467.949 178.31 440.576 155.301 411.548C125.563 374.021 101.062 333.248 87.701 286.682C66.5324 212.775 88.2723 148.767 149.779 102.774C152.952 100.386 155.936 97.7127 160.728 93.7022L64.8503 93.7022ZM190.593 819.438C109.822 630.532 27.6227 440.799 -52.0056 254.503C-52.0056 258.195 -52.0056 703.612 -52.0056 703.612C-12.493 743.367 25.1155 781.18 63.1365 819.438H190.593ZM463.913 253.835C463.69 253.803 463.754 253.803 463.532 253.771C414.085 369.406 364.639 485.073 315.573 599.881C318.176 607.647 320.493 614.109 322.524 620.697C329.442 643.137 333.441 665.99 331.95 689.575C328.713 740.725 303.799 779.588 263.874 809.89C260.383 812.531 257.082 815.46 251.687 819.916H348.77C387.68 780.83 425.32 743.048 463.944 704.249V253.835H463.913ZM226.202 808.967C296.214 772.077 329.823 702.657 302.688 630.119C277.33 689.416 252.48 747.536 226.202 808.967Z" fill="url(#paint0_linear_646_88)"/>
</g>
<g filter="url(#filter0_f_646_88)">
<circle cx="204.466" cy="487.153" r="173.087" fill="white"/>
</g>
<defs>
<filter id="filter0_f_646_88" x="-168.621" y="114.065" width="746.176" height="746.175" filterUnits="userSpaceOnUse" color-interpolation-filters="sRGB">
<feFlood flood-opacity="0" result="BackgroundImageFix"/>
<feBlend mode="normal" in="SourceGraphic" in2="BackgroundImageFix" result="shape"/>
<feGaussianBlur stdDeviation="100" result="effect1_foregroundBlur_646_88"/>
</filter>
<linearGradient id="paint0_linear_646_88" x1="309" y1="124" x2="92.9986" y2="734" gradientUnits="userSpaceOnUse">
<stop offset="0.00896657" stop-color="#F9F1EE" stop-opacity="0"/>
<stop offset="0.416667" stop-color="#D3B6AB"/>
<stop offset="0.984768" stop-color="#F0E4DF" stop-opacity="0.222222"/>
</linearGradient>
</defs>
</svg>
