<svg width="92" height="112" viewBox="0 0 92 112" fill="none" xmlns="http://www.w3.org/2000/svg">
<path d="M32.6152 89.4231H43.0858V107.324" stroke="#A07760" stroke-width="3" stroke-miterlimit="10" stroke-linecap="round"/>
<path d="M43.1174 107.324C38.622 113.026 29.4141 109.688 29.4141 102.427V94.6904" stroke="#A07760" stroke-width="3" stroke-miterlimit="10" stroke-linecap="round"/>
<path d="M15.1074 80.2553V85.3619C15.1074 90.1066 18.5976 93.1786 22.12 93.1384C25.6503 93.1786 29.1324 90.1066 29.1324 85.3619V72.3904H20.5357" stroke="#A07760" stroke-width="3" stroke-miterlimit="10" stroke-linecap="round"/>
<path d="M43.2539 107.324C47.7493 113.026 56.9573 109.689 56.9573 102.427V92.6319C56.9573 90.8627 55.5258 89.4312 53.7566 89.4312H43.2942" stroke="#A07760" stroke-width="3" stroke-miterlimit="10" stroke-linecap="round"/>
<path d="M56.9648 104.437C61.4602 110.139 70.6682 106.802 70.6682 99.5399V89.4634C70.6682 87.847 69.3574 86.5361 67.741 86.5361H59.9243" stroke="#A07760" stroke-width="3" stroke-miterlimit="10" stroke-linecap="round"/>
<path d="M70.6699 100.641C75.1653 106.343 84.3732 103.006 84.3732 95.744V85.6675C84.3732 84.0511 83.0625 82.7402 81.446 82.7402H73.6293" stroke="#A07760" stroke-width="3" stroke-miterlimit="10" stroke-linecap="round"/>
<path d="M15.7033 100.641C11.2079 106.343 2 103.006 2 95.744V85.6675C2 84.0511 3.31084 82.7402 4.92725 82.7402H11.0471" stroke="#A07760" stroke-width="3" stroke-miterlimit="10" stroke-linecap="round"/>
<path d="M41.1641 76.5722L50.7339 67.0024" stroke="#A07760" stroke-width="3" stroke-miterlimit="10" stroke-linecap="round" stroke-linejoin="round"/>
<path d="M36.9746 72.1975L41.7675 64.3245" stroke="#A07760" stroke-width="3" stroke-miterlimit="10" stroke-linecap="round" stroke-linejoin="round"/>
<path d="M45.4102 80.6413L53.2912 75.8484" stroke="#A07760" stroke-width="3" stroke-miterlimit="10" stroke-linecap="round" stroke-linejoin="round"/>
<path d="M29.0285 67.0424C29.3099 64.5896 29.0768 61.8875 28.2645 59.1694C25.852 51.1436 19.2255 46.0371 13.4594 47.7661C7.69343 49.4951 4.97529 57.4083 7.38785 65.4421C9.0686 71.0473 12.8081 75.221 16.8772 76.6444C16.7084 76.1458 16.5395 75.6311 16.3867 75.1084C13.9741 67.0826 14.1913 62.153 16.8692 61.3488C18.5178 60.8582 20.7052 62.0324 22.7076 64.8792C24.2436 67.0585 25.0237 69.6882 25.0237 72.3581" stroke="#A07760" stroke-width="3" stroke-miterlimit="10" stroke-linecap="round"/>
<path d="M22.4819 50.1065C39.9167 20.1666 77.1666 6.00483 77.1666 6.00483L73.1618 2C29.2049 15.0359 13.459 47.7663 13.459 47.7663" stroke="#A07760" stroke-width="3" stroke-miterlimit="10" stroke-linecap="round"/>
<path d="M27.043 56.0011C40.111 56.4112 64.7191 54.1595 90.1313 35.9125L89.4236 30.2913C89.4236 30.2913 65.0488 47.5973 31.0639 45.812" stroke="#A07760" stroke-width="3" stroke-miterlimit="10" stroke-linecap="round"/>
<path d="M14.3207 53.8298C14.8917 53.8298 15.3581 54.2962 15.3581 54.8672C15.3581 55.4381 14.8917 55.9046 14.3207 55.9046C13.7498 55.9046 13.2833 55.4381 13.2833 54.8672C13.2753 54.2962 13.7417 53.8298 14.3207 53.8298Z" stroke="#A07760" stroke-width="3" stroke-miterlimit="10" stroke-linecap="round"/>
<path d="M20.8021 87.7264C21.1801 88.0963 21.6465 88.3135 22.0647 88.3135C22.0647 88.3135 22.0727 88.3135 22.0808 88.3135H22.1291H22.1773C22.1773 88.3135 22.1853 88.3135 22.1934 88.3135C22.6115 88.3135 23.086 88.0963 23.4559 87.7264C23.8499 87.3404 24.3164 86.6086 24.3164 85.3621V80.7542C23.5846 81.1643 22.8207 81.5181 22.0245 81.7674C21.349 81.9846 20.6413 82.1213 19.9336 82.1615V85.3541C19.9336 86.6086 20.4081 87.3323 20.8021 87.7264Z" fill="#705547"/>
</svg>
