<svg width="99" height="96" viewBox="0 0 99 96" fill="none" xmlns="http://www.w3.org/2000/svg">
<path d="M66.3203 67.3662V87.7836" stroke="#A07760" stroke-width="3" stroke-miterlimit="10" stroke-linecap="round" stroke-linejoin="round"/>
<path d="M44.1055 87.7836V67.3662" stroke="#A07760" stroke-width="3" stroke-miterlimit="10" stroke-linecap="round" stroke-linejoin="round"/>
<path d="M73.5483 94.2801H36.8789C36.8789 90.7286 39.7581 87.8567 43.3023 87.8567H67.1249C70.6691 87.8567 73.5483 90.7286 73.5483 94.2801Z" stroke="#A07760" stroke-width="3" stroke-miterlimit="10" stroke-linecap="round" stroke-linejoin="round"/>
<path d="M66.3206 57.0844H44.1055L6.85156 19.8304C11.9522 14.7297 20.2317 14.7297 25.3323 19.8304L50.412 46.1523H73.5478L94.8347 67.4392C97.217 69.8215 97.217 73.6872 94.8347 76.0694C92.4525 78.4517 88.5867 78.4517 86.2044 76.0694L66.3206 57.0844Z" stroke="#A07760" stroke-width="3" stroke-miterlimit="10" stroke-linecap="round" stroke-linejoin="round"/>
<path d="M6.84492 19.8303L2 25.2379L44.1062 67.3661H66.3213V61.7392" stroke="#A07760" stroke-width="3" stroke-miterlimit="10" stroke-linecap="round" stroke-linejoin="round"/>
<path d="M80.2772 31.7784V2H59.8672L56.4473 5.41994" stroke="#A07760" stroke-width="3" stroke-miterlimit="10" stroke-linecap="round" stroke-linejoin="round"/>
<path d="M56.4271 16.7612L54.0522 19.1362L42.6816 7.76559L45.0566 5.39063C48.1989 2.24837 53.2849 2.24837 56.4271 5.39063C59.5621 8.53288 59.5621 13.6263 56.4271 16.7612Z" stroke="#A07760" stroke-width="3" stroke-miterlimit="10" stroke-linecap="round" stroke-linejoin="round"/>
<path d="M45.3171 16.0745L41.1152 20.269" stroke="#A07760" stroke-width="3" stroke-miterlimit="10" stroke-linecap="round" stroke-linejoin="round"/>
<path d="M42.4973 13.3779L37.4258 16.4617" stroke="#A07760" stroke-width="3" stroke-miterlimit="10" stroke-linecap="round" stroke-linejoin="round"/>
<path d="M47.9334 18.8074L44.8496 23.8861" stroke="#A07760" stroke-width="3" stroke-miterlimit="10" stroke-linecap="round" stroke-linejoin="round"/>
<path d="M94.2352 59.854V35.6732C94.2352 33.5175 92.4887 31.7783 90.3403 31.7783H70.2152C68.0595 31.7783 66.3203 33.5248 66.3203 35.6732V46.1523" stroke="#A07760" stroke-width="3" stroke-miterlimit="10" stroke-linecap="round" stroke-linejoin="round"/>
<path d="M89.8582 36.1628H70.7051V42.0235H89.8582V36.1628Z" fill="#705547"/>
</svg>
