<svg width="119" height="99" viewBox="0 0 119 99" fill="none" xmlns="http://www.w3.org/2000/svg">
<path d="M57.6409 16.3369L49.9805 3.75977" stroke="#A07760" stroke-width="3" stroke-miterlimit="10" stroke-linecap="round" stroke-linejoin="round"/>
<path d="M51.947 19.6437L44.8496 12.5542" stroke="#A07760" stroke-width="3" stroke-miterlimit="10" stroke-linecap="round" stroke-linejoin="round"/>
<path d="M63.0336 12.8873L59.9805 3.33154" stroke="#A07760" stroke-width="3" stroke-miterlimit="10" stroke-linecap="round" stroke-linejoin="round"/>
<path d="M60.2572 27.4788C58.4491 26.9633 56.5459 26.6858 54.5792 26.6858C48.0448 26.6858 42.2242 29.723 38.4495 34.4652C34.6748 29.723 28.854 26.6858 22.3196 26.6858C17.8947 26.6858 13.7948 28.0815 10.4404 30.4526C3.44609 35.4009 0.559525 44.3143 2.68478 52.6171C3.44607 55.5909 4.7784 59.2229 7.03054 61.8874C8.23591 63.3069 8.83855 65.1387 8.76718 67.0023C8.561 72.5533 9.37778 84.4088 18.4577 95.3681C20.4164 97.7392 24.2388 96.9066 25.0318 93.9407C26.2292 89.4523 28.1007 83.1558 30.5907 76.677C33.3583 69.4844 43.5246 69.4844 46.2922 76.677C48.7902 83.1558 50.6538 89.4523 51.8512 93.9407C52.6442 96.8986 56.4507 97.7471 58.4015 95.3998C67.5131 84.4167 68.3299 72.5375 68.1158 66.9864C68.0444 65.1387 68.6392 63.3148 69.8367 61.9112C72.1205 59.2229 73.4528 55.5433 74.2141 52.5537C75.3877 47.9463 75.0071 43.1407 73.2307 38.9457" stroke="#A07760" stroke-width="3" stroke-miterlimit="10" stroke-linecap="round"/>
<path d="M38.4492 34.4731C38.4492 34.4731 41.0185 37.78 42.2238 41.0868" stroke="#A07760" stroke-width="3" stroke-miterlimit="10" stroke-linecap="round"/>
<path d="M95.1727 19.3903L78.7019 31.7453L67.4492 20.4925L79.8042 4.02179C82.5322 1.29384 86.9572 1.29384 89.6852 4.02179L95.1727 9.50938C97.9007 12.2373 97.9007 16.6623 95.1727 19.3903Z" stroke="#A07760" stroke-width="3" stroke-miterlimit="10" stroke-linecap="round" stroke-linejoin="round"/>
<path d="M67.3772 31.8167L61.6992 37.4946" stroke="#A07760" stroke-width="3" stroke-miterlimit="10" stroke-linecap="round" stroke-linejoin="round"/>
<path d="M116.821 36.1782C109.668 31.7453 102.943 26.6304 96.742 20.8811C95.727 19.9374 95.1719 19.3982 95.1719 19.3982" stroke="#A07760" stroke-width="3" stroke-miterlimit="10" stroke-linecap="round" stroke-linejoin="round"/>
<path d="M82.9512 28.5576L104.18 49.7864" stroke="#A07760" stroke-width="3" stroke-miterlimit="10" stroke-linecap="round" stroke-linejoin="round"/>
<path d="M75.9573 29.0015L71.6196 33.3393C70.8345 34.1243 69.5499 34.1243 68.7648 33.3393L65.8544 30.4289C65.0694 29.6438 65.0694 28.3592 65.8544 27.5741L70.1922 23.2363" stroke="#A07760" stroke-width="3" stroke-miterlimit="10" stroke-linecap="round" stroke-linejoin="round"/>
<path d="M61.7003 45.2106C57.4419 45.2106 53.9844 41.761 53.9844 37.4946" stroke="#A07760" stroke-width="3" stroke-miterlimit="10" stroke-linecap="round" stroke-linejoin="round"/>
<path d="M22.3198 31.4438C19.0209 31.4438 15.8647 32.443 13.1844 34.3383C7.98223 38.0179 5.6112 44.8853 7.29237 51.4355C7.64129 52.7837 8.05369 54.0128 8.51363 55.1072C9.15597 52.7916 9.95682 50.5157 11.1067 48.4063C12.5896 45.6783 14.6911 43.22 17.3794 41.6816C20.718 39.7704 24.6989 39.3739 28.5371 39.2946C31.1461 39.2391 33.763 39.3184 36.372 39.5087L34.7225 37.4311C31.7011 33.6326 27.1809 31.4438 22.3198 31.4438Z" fill="#705547"/>
</svg>
