<svg width="113" height="85" viewBox="0 0 113 85" fill="none" xmlns="http://www.w3.org/2000/svg">
<path d="M79.4181 40.2165V25.9054C79.4181 21.3534 75.7312 17.6665 71.1792 17.6665C68.4665 17.6665 65.9301 19.0019 64.3932 21.2359L60.9078 26.2918C58.5227 29.752 57.2461 33.8588 57.2461 38.0665V44.5837C57.2461 46.7589 59.0098 48.5226 61.185 48.5226H77.4025" stroke="#A07760" stroke-width="3" stroke-miterlimit="10" stroke-linecap="round"/>
<path d="M57.256 44.5754C57.256 46.7506 55.4923 48.5143 53.3171 48.5143H39.0229C36.8477 48.5143 35.084 46.7506 35.084 44.5754V25.8971C35.084 21.3451 38.7709 17.6582 43.3229 17.6582C46.0356 17.6582 48.572 18.9936 50.1089 21.2276L53.5943 26.2834C55.274 28.719 56.7353 33.0274 57.256 35.9165" stroke="#A07760" stroke-width="3" stroke-miterlimit="10" stroke-linecap="round"/>
<path d="M95.1399 39.133V29.4663C95.1399 23.2431 89.2526 19.5225 84.1211 20.7487" stroke="#A07760" stroke-width="3" stroke-miterlimit="10" stroke-linecap="round"/>
<path d="M109.998 39.133C110.662 38.4695 111.082 37.5457 111.082 36.5295V25.2672C111.082 17.339 101.532 13.4756 96.1406 18.7247" stroke="#A07760" stroke-width="3" stroke-miterlimit="10" stroke-linecap="round"/>
<path d="M18.9329 40.2165H6.89784C4.8654 40.2165 3.21094 38.5704 3.21094 36.5295V25.2672C3.21094 17.6078 12.1133 13.7528 17.5807 18.2124" stroke="#A07760" stroke-width="3" stroke-miterlimit="10" stroke-linecap="round"/>
<path d="M34.8723 44.4157H22.8373C20.8049 44.4157 19.1504 42.7695 19.1504 40.7287V29.4664C19.1504 23.3355 24.8613 19.6401 29.9424 20.6983" stroke="#A07760" stroke-width="3" stroke-miterlimit="10" stroke-linecap="round"/>
<path d="M108.671 17.6582C109.074 14.8111 109.486 11.9052 108.965 9.08333C108.453 6.25304 106.849 3.46475 104.237 2.27217C101.499 1.02919 98.3076 1.74305 95.3849 2.47372C86.1885 4.79171 76.9921 7.10966 67.7958 9.42765C59.1957 11.5945 57.3733 12.0564 46.934 9.42765C37.7376 7.10966 28.5412 4.79171 19.3449 2.47372C16.4222 1.73465 13.2392 1.02079 10.4929 2.27217C7.87255 3.46475 6.27684 6.25304 5.76453 9.08333C5.25222 11.9136 5.65533 14.8195 6.05845 17.6582" stroke="#A07760" stroke-width="3" stroke-miterlimit="10" stroke-linecap="round"/>
<path d="M110.139 71.6438V77.3968C110.139 80.1851 107.88 82.4527 105.083 82.4611C71.3212 82.5619 68.9444 83.4101 51.19 73.6427C35.3336 64.925 21.896 64.9922 7.55139 65.1182C4.49434 65.1434 2 62.6742 2 59.6172C2 56.5853 4.46074 54.1246 7.4926 54.1162C30.1769 54.0406 39.2137 53.8306 51.7527 62.1536C67.5166 72.6097 79.8624 71.6522 79.8624 71.6522H103.655V59.4576" stroke="#A07760" stroke-width="3" stroke-miterlimit="10" stroke-linecap="round" stroke-linejoin="round"/>
<path d="M110.139 71.6435V59.4573" stroke="#A07760" stroke-width="3" stroke-miterlimit="10" stroke-linecap="round" stroke-linejoin="round"/>
<path d="M97.1621 71.6435V59.4573" stroke="#A07760" stroke-width="3" stroke-miterlimit="10" stroke-linecap="round" stroke-linejoin="round"/>
<path d="M90.6719 71.6435V59.4573" stroke="#A07760" stroke-width="3" stroke-miterlimit="10" stroke-linecap="round" stroke-linejoin="round"/>
<path d="M84.1875 71.6435V59.4573" stroke="#A07760" stroke-width="3" stroke-miterlimit="10" stroke-linecap="round" stroke-linejoin="round"/>
<path d="M109.904 45.7091C108.51 43.5339 105.932 42.1649 103.345 42.2405C101.153 42.2993 99.1712 43.2903 97.1556 44.2394V44.231C96.7692 44.4073 96.4081 44.5753 96.0805 44.7013C92.276 46.1374 87.3209 45.516 84.0035 43.1644C82.8613 45.4824 83.0209 48.3966 84.4151 50.5718C85.8092 52.747 88.3875 54.116 90.9743 54.0404C93.1663 53.9816 95.1483 52.9906 97.164 52.0416V52.05C97.5503 51.8736 97.9114 51.7056 98.2389 51.5796C102.043 50.1435 106.999 50.765 110.316 53.1166C111.458 50.7986 111.299 47.8843 109.904 45.7091Z" fill="#705547"/>
</svg>
