<svg width="75" height="97" viewBox="0 0 75 97" fill="none" xmlns="http://www.w3.org/2000/svg">
<path d="M42.5595 42.2584H44.2735C45.8378 42.2584 47.2748 41.4351 48.0682 40.0953C50.4933 36.0236 55.1637 26.3983 54.9916 12.9108C54.9018 5.83027 48.203 0.441249 41.3993 2.40973C41.1673 2.47709 40.9278 2.55189 40.6883 2.64171C38.3456 3.48749 35.8307 3.48749 33.4955 2.64171C33.256 2.55938 33.0239 2.47709 32.7844 2.40973C25.9808 0.441249 19.2819 5.83027 19.1921 12.9108C19.02 26.3908 23.6905 36.0161 26.1155 40.0953C26.9164 41.4351 28.3534 42.2584 29.9103 42.2584H31.6243" stroke="#A07760" stroke-width="3" stroke-miterlimit="10" stroke-linecap="round"/>
<path d="M37.0957 35.5447V52.2655" stroke="#A07760" stroke-width="3" stroke-miterlimit="10" stroke-linecap="round"/>
<path d="M46.7146 57.3326V51.8986C46.7146 50.8433 45.8613 49.99 44.806 49.99H42.5605" stroke="#A07760" stroke-width="3" stroke-miterlimit="10" stroke-linecap="round"/>
<path d="M27.4785 82.0248V83.5666C27.4785 84.9737 27.9351 86.321 28.7509 87.3165L34.0202 93.7534C35.7117 95.8192 38.4736 95.8192 40.1651 93.7534L45.4344 87.3165C46.2502 86.321 46.7068 84.9737 46.7068 83.5666V73.4922" stroke="#A07760" stroke-width="3" stroke-miterlimit="10" stroke-linecap="round"/>
<path d="M31.2958 49.9976H29.3871C28.3318 49.9976 27.4785 50.8509 27.4785 51.9062V65.8727" stroke="#A07760" stroke-width="3" stroke-miterlimit="10" stroke-linecap="round"/>
<path d="M23.5938 67.5941L50.5987 55.6111" stroke="#A07760" stroke-width="3" stroke-miterlimit="10" stroke-linecap="round"/>
<path d="M23.5938 75.6776L50.5987 63.687" stroke="#A07760" stroke-width="3" stroke-miterlimit="10" stroke-linecap="round"/>
<path d="M23.5938 83.7537L50.5987 71.7708" stroke="#A07760" stroke-width="3" stroke-miterlimit="10" stroke-linecap="round"/>
<path d="M37.095 35.5447C40.7988 35.5447 43.8013 32.5422 43.8013 28.8384C43.8013 25.1346 40.7988 22.1321 37.095 22.1321C33.3912 22.1321 30.3887 25.1346 30.3887 28.8384C30.3887 32.5422 33.3912 35.5447 37.095 35.5447Z" stroke="#A07760" stroke-width="3" stroke-miterlimit="10" stroke-linecap="round"/>
<path d="M55 49.9976C64.9771 49.9976 73.0606 58.0811 73.0606 68.0582V95.3026" stroke="#A07760" stroke-width="3" stroke-miterlimit="10" stroke-linecap="round"/>
<path d="M20.0606 49.9976C10.0835 49.9976 2 58.0811 2 68.0582V95.3026" stroke="#A07760" stroke-width="3" stroke-miterlimit="10" stroke-linecap="round"/>
<path d="M47.8147 7.70129C47.1336 7.19981 45.8911 6.48877 44.2744 6.48877C43.7655 6.48877 43.2266 6.55618 42.6503 6.72084C42.5006 6.76575 42.3583 6.81061 42.2161 6.86301C40.562 7.46178 38.8331 7.76123 37.0966 7.76123C35.3601 7.76123 33.6237 7.46178 31.9695 6.86301C31.8348 6.81061 31.6926 6.76576 31.5579 6.72833C30.9816 6.56367 30.4277 6.48877 29.9187 6.48877C28.2945 6.48877 27.0596 7.19233 26.3785 7.70129C24.7169 8.92879 23.7139 10.8973 23.6914 12.9706C23.654 16.0094 23.886 18.8236 24.2902 21.4134C27.4787 17.9704 32.0369 15.8148 37.0966 15.8148C42.1563 15.8148 46.7145 17.9704 49.903 21.4134C50.3071 18.8311 50.5392 16.0094 50.5017 12.9706C50.4793 10.8973 49.4688 8.92879 47.8147 7.70129Z" fill="#705547"/>
</svg>
