<svg width="31" height="31" viewBox="0 0 31 31" fill="none" xmlns="http://www.w3.org/2000/svg">
<path d="M15.1842 2.73664C19.2409 2.73664 19.7171 2.75473 21.3205 2.82706C22.8034 2.89337 23.6051 3.14051 24.1415 3.35149C24.8528 3.62877 25.3592 3.95427 25.8896 4.48472C26.4201 5.01517 26.7516 5.52151 27.0229 6.2328C27.2278 6.76928 27.481 7.57098 27.5473 9.05383C27.6196 10.6572 27.6377 11.1334 27.6377 15.1902C27.6377 19.2469 27.6196 19.7231 27.5473 21.3265C27.481 22.8094 27.2338 23.6111 27.0229 24.1476C26.7456 24.8589 26.4201 25.3652 25.8896 25.8956C25.3592 26.4261 24.8528 26.7576 24.1415 27.0289C23.6051 27.2338 22.8034 27.487 21.3205 27.5533C19.7171 27.6256 19.2409 27.6437 15.1842 27.6437C11.1274 27.6437 10.6512 27.6256 9.0478 27.5533C7.56495 27.487 6.76325 27.2399 6.22677 27.0289C5.51548 26.7516 5.00914 26.4261 4.47869 25.8956C3.94824 25.3652 3.61671 24.8589 3.34546 24.1476C3.14051 23.6111 2.88734 22.8094 2.82103 21.3265C2.7487 19.7231 2.73062 19.2469 2.73062 15.1902C2.73062 11.1334 2.7487 10.6572 2.82103 9.05383C2.88734 7.57098 3.13448 6.76928 3.34546 6.2328C3.62274 5.52151 3.94824 5.01517 4.47869 4.48472C5.00914 3.95427 5.51548 3.62274 6.22677 3.35149C6.76325 3.14654 7.56495 2.89337 9.0478 2.82706C10.6512 2.7487 11.1274 2.73664 15.1842 2.73664ZM15.1842 0C11.0611 0 10.5427 0.0180835 8.92122 0.0904178C7.30575 0.162752 6.20266 0.421949 5.2382 0.795676C4.23758 1.18146 3.39368 1.70588 2.54978 2.54978C1.70588 3.39368 1.18749 4.24361 0.795676 5.2382C0.421949 6.20266 0.162752 7.30575 0.0904178 8.92725C0.0180835 10.5427 0 11.0611 0 15.1842C0 19.3072 0.0180835 19.8256 0.0904178 21.4471C0.162752 23.0626 0.421949 24.1657 0.795676 25.1361C1.18146 26.1368 1.70588 26.9807 2.54978 27.8246C3.39368 28.6685 4.24361 29.1869 5.2382 29.5787C6.20266 29.9524 7.30575 30.2116 8.92725 30.2839C10.5487 30.3563 11.0611 30.3743 15.1902 30.3743C19.3193 30.3743 19.8316 30.3563 21.4531 30.2839C23.0686 30.2116 24.1717 29.9524 25.1422 29.5787C26.1428 29.1929 26.9867 28.6685 27.8306 27.8246C28.6745 26.9807 29.1929 26.1307 29.5847 25.1361C29.9584 24.1717 30.2176 23.0686 30.2899 21.4471C30.3623 19.8256 30.3804 19.3132 30.3804 15.1842C30.3804 11.0551 30.3623 10.5427 30.2899 8.92122C30.2176 7.30575 29.9584 6.20266 29.5847 5.23217C29.1989 4.23155 28.6745 3.38765 27.8306 2.54375C26.9867 1.69985 26.1368 1.18146 25.1422 0.789648C24.1777 0.415922 23.0746 0.156724 21.4531 0.0843899C19.8256 0.0180836 19.3072 0 15.1842 0Z" fill="#A07760"/>
<path d="M15.1848 7.38416C10.8809 7.38416 7.38477 10.8743 7.38477 15.1842C7.38477 19.4941 10.8809 22.9842 15.1848 22.9842C19.4887 22.9842 22.9848 19.4881 22.9848 15.1842C22.9848 10.8803 19.4887 7.38416 15.1848 7.38416ZM15.1848 20.2476C12.3879 20.2476 10.1214 17.9811 10.1214 15.1842C10.1214 12.3873 12.3879 10.1208 15.1848 10.1208C17.9817 10.1208 20.2482 12.3873 20.2482 15.1842C20.2482 17.9811 17.9817 20.2476 15.1848 20.2476Z" fill="#A07760"/>
<path d="M23.2911 8.89711C24.2965 8.89711 25.1115 8.08208 25.1115 7.0767C25.1115 6.07131 24.2965 5.25629 23.2911 5.25629C22.2857 5.25629 21.4707 6.07131 21.4707 7.0767C21.4707 8.08208 22.2857 8.89711 23.2911 8.89711Z" fill="#A07760"/>
</svg>
