<svg width="14" height="12" viewBox="0 0 14 12" fill="none" xmlns="http://www.w3.org/2000/svg">
<path d="M1.4 12C1.015 12 0.685417 11.8531 0.41125 11.5594C0.137083 11.2656 0 10.9125 0 10.5V1.5C0 1.0875 0.137083 0.734375 0.41125 0.440625C0.685417 0.146875 1.015 0 1.4 0H12.6C12.985 0 13.3146 0.146875 13.5887 0.440625C13.8629 0.734375 14 1.0875 14 1.5V10.5C14 10.9125 13.8629 11.2656 13.5887 11.5594C13.3146 11.8531 12.985 12 12.6 12H1.4ZM7 6.75L1.4 3V10.5H12.6V3L7 6.75ZM7 5.25L12.6 1.5H1.4L7 5.25ZM1.4 3V1.5V10.5V3Z" fill="#C5AA9F"/>
</svg>
