<svg width="14" height="17" viewBox="0 0 14 17" fill="none" xmlns="http://www.w3.org/2000/svg">
<path d="M6.66667 8.33333C7.125 8.33333 7.51736 8.17014 7.84375 7.84375C8.17014 7.51736 8.33333 7.125 8.33333 6.66667C8.33333 6.20833 8.17014 5.81597 7.84375 5.48958C7.51736 5.1632 7.125 5 6.66667 5C6.20833 5 5.81597 5.1632 5.48958 5.48958C5.16319 5.81597 5 6.20833 5 6.66667C5 7.125 5.16319 7.51736 5.48958 7.84375C5.81597 8.17014 6.20833 8.33333 6.66667 8.33333ZM6.66667 14.4583C8.36111 12.9028 9.61806 11.4896 10.4375 10.2188C11.2569 8.94792 11.6667 7.81945 11.6667 6.83333C11.6667 5.31945 11.184 4.07986 10.2188 3.11458C9.25347 2.14931 8.06944 1.66667 6.66667 1.66667C5.26389 1.66667 4.07986 2.14931 3.11458 3.11458C2.14931 4.07986 1.66667 5.31945 1.66667 6.83333C1.66667 7.81945 2.07639 8.94792 2.89583 10.2188C3.71528 11.4896 4.97222 12.9028 6.66667 14.4583ZM6.66667 16.6667C4.43056 14.7639 2.76042 12.9965 1.65625 11.3646C0.552083 9.73264 0 8.22222 0 6.83333C0 4.75 0.670139 3.09028 2.01042 1.85417C3.35069 0.618056 4.90278 0 6.66667 0C8.43056 0 9.98264 0.618056 11.3229 1.85417C12.6632 3.09028 13.3333 4.75 13.3333 6.83333C13.3333 8.22222 12.7812 9.73264 11.6771 11.3646C10.5729 12.9965 8.90278 14.7639 6.66667 16.6667Z" fill="#C5AA9F"/>
</svg>
