<svg width="122" height="52" viewBox="0 0 122 52" fill="none" xmlns="http://www.w3.org/2000/svg">
<path d="M95.2592 22.1419V14.7499C95.2592 7.70523 89.554 2 82.5093 2C78.3173 2 74.3898 4.06714 72.0085 7.51506L66.6175 15.3369C64.5504 18.3384 63.0207 21.654 62.0781 25.135" stroke="#A07760" stroke-width="3" stroke-miterlimit="10" stroke-linecap="round"/>
<path d="M60.9609 36.3801V43.6563C60.9609 47.0215 63.6895 49.7501 67.0547 49.7501H89.1644C92.5297 49.7501 95.2583 47.0215 95.2583 43.6563V33.4448" stroke="#A07760" stroke-width="3" stroke-miterlimit="10" stroke-linecap="round"/>
<path d="M26.6562 22.2245V14.7582C26.6562 7.71348 32.3614 2.0083 39.4061 2.0083C43.5982 2.0083 47.5257 4.07539 49.907 7.52331L58.6467 20.1657" stroke="#A07760" stroke-width="3" stroke-miterlimit="10" stroke-linecap="round"/>
<path d="M60.9618 43.648C60.9618 47.0132 58.2333 49.7418 54.868 49.7418H32.7501C29.3848 49.7418 26.6562 47.0132 26.6562 43.648V33.4365" stroke="#A07760" stroke-width="3" stroke-miterlimit="10" stroke-linecap="round"/>
<path d="M95.2598 43.4082H113.88C117.03 43.4082 119.585 40.8532 119.585 37.703V20.2732C119.585 15.1138 116.973 11.0705 113.326 8.71398C109.341 6.14251 104.248 5.99368 99.9397 7.98636L99.5511 8.16829" stroke="#A07760" stroke-width="3" stroke-miterlimit="10" stroke-linecap="round"/>
<path d="M26.3256 43.4081H7.7052C4.55494 43.4081 2 40.8531 2 37.7029V20.2731C2 15.5271 4.20766 11.7319 7.39927 9.31751C11.3102 6.3657 16.5607 5.86133 21.1165 7.67211L22.5718 8.25086" stroke="#A07760" stroke-width="3" stroke-miterlimit="10" stroke-linecap="round"/>
<path d="M81.5012 37.0001H74.7211C73.1914 37.0001 71.9512 35.7598 71.9512 34.2302V26.9457C71.9512 25.4161 73.1914 24.1758 74.7211 24.1758H81.5012C83.0308 24.1758 84.2711 25.4161 84.2711 26.9457V34.2302C84.2711 35.7598 83.0308 37.0001 81.5012 37.0001Z" stroke="#A07760" stroke-width="3" stroke-miterlimit="10" stroke-linecap="round"/>
<path d="M102.561 25.8791V23.0017C102.561 21.7945 103.544 20.8105 104.752 20.8105H110.101C111.309 20.8105 112.292 21.7945 112.292 23.0017V28.7482C112.292 29.9554 111.309 30.9393 110.101 30.9393H104.752" stroke="#A07760" stroke-width="3" stroke-miterlimit="10" stroke-linecap="round"/>
<path d="M16.8416 30.9393H11.4919C10.2847 30.9393 9.30078 29.9554 9.30078 28.7482V23.0017C9.30078 21.7945 10.2847 20.8105 11.4919 20.8105H16.8416C18.0487 20.8105 19.0327 21.7945 19.0327 23.0017V25.8791" stroke="#A07760" stroke-width="3" stroke-miterlimit="10" stroke-linecap="round"/>
<path d="M46.9719 37.0001H40.1918C38.6621 37.0001 37.4219 35.7598 37.4219 34.2302V26.9457C37.4219 25.4161 38.6621 24.1758 40.1918 24.1758H46.9719C48.5015 24.1758 49.7418 25.4161 49.7418 26.9457V34.2302C49.7418 35.7598 48.5015 37.0001 46.9719 37.0001Z" stroke="#A07760" stroke-width="3" stroke-miterlimit="10" stroke-linecap="round"/>
<path d="M49.7422 30.584H71.9428" stroke="#A07760" stroke-width="3" stroke-miterlimit="10" stroke-linecap="round"/>
<path d="M84.2715 30.5839L102.561 25.8792" stroke="#A07760" stroke-width="3" stroke-miterlimit="10" stroke-linecap="round"/>
<path d="M37.4143 30.5839L19.0254 25.8792" stroke="#A07760" stroke-width="3" stroke-miterlimit="10" stroke-linecap="round"/>
<path d="M39.406 6.96924C35.1147 6.96924 31.6172 10.4668 31.6172 14.7581V14.8821C33.676 14.5018 35.7927 14.3694 37.8846 14.3446C41.6716 14.3033 45.4585 14.6092 49.1958 15.2211L45.8306 10.351C44.3671 8.22606 41.9692 6.96924 39.406 6.96924Z" fill="#705547"/>
<path d="M82.8484 6.96924C87.1397 6.96924 90.6372 10.4668 90.6372 14.7581V14.8821C88.5784 14.5018 86.4699 14.3694 84.3698 14.3446C80.5828 14.3033 76.7959 14.6092 73.0586 15.2211L76.4238 10.351C77.8873 8.22606 80.2852 6.96924 82.8484 6.96924Z" fill="#705547"/>
</svg>
