<svg width="119" height="97" viewBox="0 0 119 97" fill="none" xmlns="http://www.w3.org/2000/svg">
<path d="M96.7949 15.4856L107.355 4.92603" stroke="#A07760" stroke-width="3" stroke-miterlimit="10" stroke-linecap="round" stroke-linejoin="round"/>
<path d="M92.1816 10.6588L97.4662 1.97583" stroke="#A07760" stroke-width="3" stroke-miterlimit="10" stroke-linecap="round" stroke-linejoin="round"/>
<path d="M101.48 19.9671L110.163 14.6826" stroke="#A07760" stroke-width="3" stroke-miterlimit="10" stroke-linecap="round" stroke-linejoin="round"/>
<path d="M22.6246 15.4856L12.0742 4.92603" stroke="#A07760" stroke-width="3" stroke-miterlimit="10" stroke-linecap="round" stroke-linejoin="round"/>
<path d="M27.2469 10.6588L21.9531 1.97583" stroke="#A07760" stroke-width="3" stroke-miterlimit="10" stroke-linecap="round" stroke-linejoin="round"/>
<path d="M17.9388 19.9671L9.25586 14.6826" stroke="#A07760" stroke-width="3" stroke-miterlimit="10" stroke-linecap="round" stroke-linejoin="round"/>
<path d="M67.1785 63.9329C69.55 70.0951 71.3239 76.0798 72.463 80.3466C73.2192 83.1569 76.8325 83.9691 78.6905 81.7284C87.3548 71.2901 88.1297 59.9836 87.9336 54.7084C87.8682 52.9532 88.4378 51.2166 89.5675 49.8815C91.7429 47.3232 93.0034 43.822 93.7317 40.9837C95.7297 33.113 92.966 24.6728 86.3371 19.9858C83.144 17.7264 79.2507 16.4006 75.0399 16.4006C68.8311 16.4006 63.2945 19.295 59.6999 23.8045C56.1147 19.295 50.5782 16.4006 44.36 16.4006C40.1492 16.4006 36.2559 17.7264 33.0628 19.9858C26.4059 24.6915 23.6609 33.169 25.6869 41.0584C26.4152 43.8874 27.6756 47.3419 29.823 49.8721C30.9714 51.2259 31.5409 52.9625 31.4756 54.7365C31.2795 60.0116 32.0544 71.2901 40.6907 81.7097C42.558 83.9598 46.19 83.1756 46.9463 80.3466C48.0853 76.0798 49.8592 70.0951 52.2307 63.9329C54.8822 57.0893 64.5362 57.0893 67.1785 63.9329Z" stroke="#A07760" stroke-width="3" stroke-miterlimit="10" stroke-linecap="round"/>
<path d="M59.709 23.7954C59.709 23.7954 62.1551 26.9418 63.3035 30.0789" stroke="#A07760" stroke-width="3" stroke-miterlimit="10" stroke-linecap="round"/>
<path d="M117.418 63.6809H102.405C99.1653 63.6809 96.3457 65.9403 95.6922 69.1054C93.7315 78.582 89.7448 90.094 82.4996 93.7446C77.6166 96.2001 69.1204 95.5465 62.5474 81.3737C61.4271 78.9648 57.9912 78.9648 56.8709 81.3737C50.3073 95.5372 41.8016 96.2001 36.9186 93.7446C29.6734 90.1033 25.6868 78.5914 23.7261 69.1054C23.0726 65.931 20.2529 63.6809 17.0131 63.6809H2" stroke="#A07760" stroke-width="3" stroke-miterlimit="10" stroke-linecap="round"/>
<path d="M41.4929 31.5633C45.4422 28.6503 50.4467 27.4552 55.3484 27.3245L55.3203 27.2871C52.6501 23.926 48.6541 22.0027 44.3686 22.0027C41.4556 22.0027 38.6733 22.8896 36.3018 24.5609C31.7176 27.8007 29.6355 33.8787 31.12 39.6674C31.6615 41.7775 32.3897 43.6074 33.2113 44.9986C34.5091 39.7328 37.1794 34.7564 41.4929 31.5633Z" fill="#705547"/>
</svg>
