<svg width="100" height="93" viewBox="0 0 100 93" fill="none" xmlns="http://www.w3.org/2000/svg">
<path d="M50.1885 75.9533C45.4342 81.975 35.7051 78.4486 35.7051 70.7818V60.4309C35.7051 58.5575 37.2243 57.0461 39.0898 57.0461H50.1492V75.9533" stroke="#A07760" stroke-width="3" stroke-miterlimit="10" stroke-linecap="round"/>
<path d="M50.3301 75.9533C55.0844 81.975 64.8135 78.4486 64.8135 70.7818V60.4309C64.8135 58.5575 63.2943 57.0461 61.4288 57.0461H50.3694" stroke="#A07760" stroke-width="3" stroke-miterlimit="10" stroke-linecap="round"/>
<path d="M64.8145 72.9069C69.5688 78.9286 79.2979 75.4022 79.2979 67.7354V57.0932C79.2979 55.3851 77.9125 53.9998 76.2044 53.9998H67.9473" stroke="#A07760" stroke-width="3" stroke-miterlimit="10" stroke-linecap="round"/>
<path d="M79.2891 68.9005C84.0434 74.9222 93.7725 71.3958 93.7725 63.729V53.0869C93.7725 51.3788 92.3871 49.9934 90.679 49.9934H82.4219" stroke="#A07760" stroke-width="3" stroke-miterlimit="10" stroke-linecap="round"/>
<path d="M35.7061 72.9069C30.9517 78.9286 21.2227 75.4022 21.2227 67.7354V57.0932C21.2227 55.3851 22.608 53.9998 24.3161 53.9998H32.5733" stroke="#A07760" stroke-width="3" stroke-miterlimit="10" stroke-linecap="round"/>
<path d="M21.2217 68.9005C16.4674 74.9222 6.73828 71.3958 6.73828 63.729V53.0869C6.73828 51.3788 8.12365 49.9934 9.83175 49.9934H18.0889" stroke="#A07760" stroke-width="3" stroke-miterlimit="10" stroke-linecap="round"/>
<path d="M56.6513 19.18L53.542 23.6982C51.4089 26.7917 50.2754 30.4598 50.2754 34.2144V40.0393C50.2754 41.9836 51.8497 43.5579 53.7939 43.5579H66.5614C68.5056 43.5579 70.0799 41.9836 70.0799 40.0393V23.3598C70.0799 19.2981 66.7818 16 62.7201 16C60.2879 16 58.0209 17.1886 56.6513 19.18Z" stroke="#A07760" stroke-width="3" stroke-miterlimit="10" stroke-linecap="round"/>
<path d="M50.2752 40.3823C50.2752 42.3266 48.7009 43.9009 46.7567 43.9009H33.9892C32.045 43.9009 30.4707 42.3266 30.4707 40.3823V23.7028C30.4707 19.6411 33.7688 16.343 37.8305 16.343C40.2549 16.343 42.5219 17.5316 43.8915 19.5309L47.0007 24.0491C48.4963 26.2295 49.8029 30.0786 50.2673 32.6526" stroke="#A07760" stroke-width="3" stroke-miterlimit="10" stroke-linecap="round"/>
<path d="M70.0723 40.2406H80.8247C82.643 40.2406 84.1149 38.7687 84.1149 36.9504V26.8907C84.1149 21.3334 78.8568 18.0117 74.2677 19.1059" stroke="#A07760" stroke-width="3" stroke-miterlimit="10" stroke-linecap="round"/>
<path d="M84.3027 36.4861H95.0551C96.8734 36.4861 98.3453 35.0142 98.3453 33.1959V23.1362C98.3453 16.0519 89.8127 12.6042 84.9954 17.2956" stroke="#A07760" stroke-width="3" stroke-miterlimit="10" stroke-linecap="round"/>
<path d="M16.0426 36.4861H5.29025C3.47195 36.4861 2 35.0141 2 33.1958V23.1361C2 16.2959 9.95014 12.8482 14.8383 16.839" stroke="#A07760" stroke-width="3" stroke-miterlimit="10" stroke-linecap="round"/>
<path d="M30.2829 40.2407H19.5305C17.7122 40.2407 16.2402 38.7687 16.2402 36.9504V26.8907C16.2402 21.4122 21.3409 18.1141 25.8827 19.0586" stroke="#A07760" stroke-width="3" stroke-miterlimit="10" stroke-linecap="round"/>
<path d="M96.1971 16.3431C96.5592 13.8006 96.9213 11.2109 96.4647 8.68412C96.0082 6.15739 94.5756 3.67005 92.2378 2.6074C89.7898 1.49753 86.9403 2.1351 84.3348 2.78843C76.1171 4.85862 67.9072 6.92881 59.6894 8.999C52.0069 10.9354 50.3775 11.3526 41.0499 8.999C32.8321 6.92881 24.6222 4.85862 16.4044 2.78843C13.799 2.1351 10.9495 1.48966 8.50149 2.6074C6.16368 3.67005 4.73108 6.16527 4.27454 8.68412C3.818 11.2109 4.18008 13.8085 4.54216 16.3431" stroke="#A07760" stroke-width="3" stroke-miterlimit="10" stroke-linecap="round"/>
<path d="M93.8118 62.1627C95.6852 64.4611 96.7006 66.9485 96.7006 69.5382C96.7006 81.2509 75.8649 90.7517 50.1725 90.7517C24.4723 90.7517 3.64453 81.2509 3.64453 69.5382C3.64453 66.8698 4.72292 64.3116 6.69865 61.958" stroke="#A07760" stroke-width="3" stroke-miterlimit="10" stroke-linecap="round"/>
<path d="M62.7117 21.0659C61.8459 21.0659 61.0351 21.4909 60.5392 22.2072L57.43 26.7255C56.5956 27.9377 55.9738 29.2601 55.5645 30.6454C57.5323 30.6297 59.5002 30.9052 61.3893 31.4719C62.7668 31.8891 64.0971 32.4716 65.3486 33.18V23.6949C65.3486 22.2466 64.1679 21.0659 62.7117 21.0659Z" fill="#705547"/>
<path d="M38.1135 21.0659C38.9793 21.0659 39.7901 21.4909 40.286 22.2072L43.3952 26.7255C44.2296 27.9377 44.8514 29.2601 45.2607 30.6454C43.2929 30.6297 41.325 30.9052 39.4359 31.4719C38.0584 31.8891 36.7281 32.4716 35.4766 33.18V23.6949C35.4766 22.2466 36.6573 21.0659 38.1135 21.0659Z" fill="#705547"/>
</svg>
