<svg width="104" height="87" viewBox="0 0 104 87" fill="none" xmlns="http://www.w3.org/2000/svg">
<path d="M39.3939 9.043C33.5111 13.4086 28.7838 18.086 25.2121 23.0753C21.6404 28.0645 19.8545 32.3262 19.8545 35.8602C19.8545 38.9785 20.695 41.3692 22.3758 43.0323C24.2667 44.6953 26.998 46.5663 30.5697 48.6452C34.7717 50.9319 37.9232 53.3226 40.0242 55.8172C42.3354 58.3118 43.4909 61.7419 43.4909 66.1075C43.4909 71.9283 41.495 76.9175 37.503 81.0752C33.5111 85.0251 28.4687 87 22.3758 87C15.8626 87 10.5051 84.4014 6.30303 79.2043C2.10101 74.0072 0 67.7706 0 60.4946C0 35.9642 11.0303 15.7993 33.0909 0L39.3939 9.043ZM99.903 9.043C94.0202 13.4086 89.2929 18.086 85.7212 23.0753C82.1495 28.0645 80.3636 32.3262 80.3636 35.8602C80.3636 38.9785 81.204 41.3692 82.8848 43.0323C84.7758 44.6953 87.5071 46.5663 91.0788 48.6452C95.2808 50.9319 98.4323 53.3226 100.533 55.8172C102.844 58.3118 104 61.7419 104 66.1075C104 71.9283 102.004 76.9175 98.0121 81.0752C94.0202 85.0251 88.9778 87 82.8848 87C76.3717 87 71.0142 84.4014 66.8121 79.2043C62.6101 74.0072 60.5091 67.7706 60.5091 60.4946C60.5091 35.9642 71.5394 15.7993 93.6 0L99.903 9.043Z" fill="#594438"/>
</svg>
