<svg width="14" height="14" viewBox="0 0 14 14" fill="none" xmlns="http://www.w3.org/2000/svg">
<path d="M13.1833 14C11.563 14 9.96204 13.6468 8.38056 12.9403C6.79907 12.2338 5.36019 11.2324 4.06389 9.93611C2.76759 8.63982 1.7662 7.20093 1.05972 5.61944C0.353241 4.03796 0 2.43704 0 0.816667C0 0.583333 0.0777778 0.388889 0.233333 0.233333C0.388889 0.0777778 0.583333 0 0.816667 0H3.96667C4.14815 0 4.31019 0.0615741 4.45278 0.184722C4.59537 0.30787 4.67963 0.453704 4.70556 0.622222L5.21111 3.34444C5.23704 3.55185 5.23056 3.72685 5.19167 3.86944C5.15278 4.01204 5.08148 4.13519 4.97778 4.23889L3.09167 6.14444C3.35093 6.62407 3.6588 7.0875 4.01528 7.53472C4.37176 7.98194 4.76389 8.41296 5.19167 8.82778C5.59352 9.22963 6.01481 9.60231 6.45556 9.94583C6.8963 10.2894 7.36296 10.6037 7.85556 10.8889L9.68333 9.06111C9.8 8.94444 9.95232 8.85695 10.1403 8.79861C10.3282 8.74028 10.513 8.72407 10.6944 8.75L13.3778 9.29445C13.5593 9.3463 13.7083 9.44028 13.825 9.57639C13.9417 9.7125 14 9.86481 14 10.0333V13.1833C14 13.4167 13.9222 13.6111 13.7667 13.7667C13.6111 13.9222 13.4167 14 13.1833 14ZM2.35278 4.66667L3.63611 3.38333L3.30556 1.55556H1.575C1.63981 2.08704 1.73056 2.61204 1.84722 3.13056C1.96389 3.64907 2.13241 4.16111 2.35278 4.66667ZM9.31389 11.6278C9.81944 11.8481 10.3347 12.0231 10.8597 12.1528C11.3847 12.2824 11.913 12.3667 12.4444 12.4056V10.6944L10.6167 10.325L9.31389 11.6278Z" fill="#C5AA9F"/>
</svg>
