<svg width="47" height="47" viewBox="0 0 47 47" fill="none" xmlns="http://www.w3.org/2000/svg">
<path fill-rule="evenodd" clip-rule="evenodd" d="M39.5722 6.76674C35.2158 2.41038 29.4331 0.0110568 23.2634 0C10.5482 0 0.210079 10.3491 0.199022 23.0534C0.199022 27.1223 1.26047 31.0806 3.27281 34.5856L0 46.5379L12.2288 43.3315C15.6011 45.1669 19.3936 46.1399 23.2524 46.1399H23.2634C35.9677 46.1399 46.3168 35.7908 46.3279 23.0755C46.3168 16.9169 43.9286 11.1231 39.5722 6.76674ZM23.2634 42.2479C19.8137 42.2479 16.4414 41.3191 13.5003 39.5722L12.8037 39.152L5.5505 41.0538L7.48543 33.9775L7.03211 33.2477C5.10823 30.196 4.10206 26.6689 4.10206 23.0534C4.10206 12.4831 12.7042 3.89198 23.2745 3.89198C28.3938 3.89198 33.2035 5.89326 36.8301 9.50882C40.4457 13.1354 42.4359 17.9451 42.4359 23.0644C42.4248 33.6457 33.8227 42.2479 23.2634 42.2479ZM33.7674 27.8962C33.1924 27.6088 30.3619 26.2156 29.8312 26.0166C29.3004 25.8286 28.9135 25.7291 28.5375 26.3041C28.1505 26.879 27.0449 28.1837 26.7132 28.5596C26.3815 28.9466 26.0387 28.9908 25.4637 28.7034C24.8888 28.4159 23.0313 27.8078 20.831 25.8397C19.1172 24.3138 17.9673 22.4231 17.6245 21.8482C17.2928 21.2732 17.5913 20.9636 17.8788 20.6762C18.1331 20.4219 18.4538 20.0017 18.7412 19.67C19.0287 19.3383 19.1282 19.095 19.3162 18.7081C19.5041 18.3211 19.4157 17.9894 19.272 17.7019C19.1282 17.4144 17.9783 14.5728 17.4918 13.4229C17.0274 12.2951 16.552 12.4499 16.1982 12.4389C15.8665 12.4168 15.4795 12.4168 15.0925 12.4168C14.7055 12.4168 14.0863 12.5605 13.5556 13.1354C13.0249 13.7104 11.5433 15.1035 11.5433 17.9451C11.5433 20.7867 13.6109 23.5177 13.8984 23.9047C14.1858 24.2917 17.9562 30.1076 23.7389 32.6064C25.1099 33.2035 26.1824 33.5573 27.0228 33.8227C28.4048 34.2649 29.6543 34.1986 30.6494 34.0548C31.7551 33.889 34.0549 32.6617 34.5414 31.3128C35.0168 29.9638 35.0168 28.8139 34.8731 28.5707C34.7293 28.3274 34.3534 28.1837 33.7674 27.8962Z" fill="#A07760"/>
</svg>
